<?xml version="1.0" encoding="UTF-8"?>
<svg version="1.1" xmlns="http://www.w3.org/2000/svg" width="225" height="225">
<path d="M0 0 C74.25 0 148.5 0 225 0 C225 74.25 225 148.5 225 225 C150.75 225 76.5 225 0 225 C0 150.75 0 76.5 0 0 Z " fill="#FDFDFD" transform="translate(0,0)"/>
<path d="M0 0 C1.42978812 1.1927782 2.846916 2.40092109 4.25 3.625 C4.94738281 4.21410156 5.64476563 4.80320312 6.36328125 5.41015625 C8.00415052 6.80111357 9.62900058 8.21093667 11.25 9.625 C11.96027344 9.33753906 12.67054687 9.05007812 13.40234375 8.75390625 C16.19206026 7.64796925 18.99424502 6.59337769 21.8125 5.5625 C22.74191406 5.22089844 23.67132813 4.87929688 24.62890625 4.52734375 C33.58070456 1.44557712 42.59881546 1.62755611 51.25 5.625 C62.29640554 11.49581693 73.12830296 19.61924093 77.3359375 31.7578125 C80.94474642 47.02585024 77.98831329 60.84828902 70.125 74.1875 C58.93994638 90.7963404 43.35233755 102.66412768 26.25 112.625 C25.50492187 113.06263672 24.75984375 113.50027344 23.9921875 113.95117188 C-3.71378717 130.12864352 -3.71378717 130.12864352 -16.75 127.625 C-22.81425551 125.33700348 -27.40968509 121.74366385 -32.0625 117.3125 C-32.70985107 116.69785889 -33.35720215 116.08321777 -34.02416992 115.44995117 C-49.61122569 100.25194586 -60.42411107 80.68083996 -65.75 59.625 C-66.04777344 58.47644531 -66.04777344 58.47644531 -66.3515625 57.3046875 C-68.83333096 40.61357802 -66.79762501 25.23205237 -56.8828125 11.34765625 C-50.29337648 2.93586705 -41.87236303 -5.02067167 -31 -7.125 C-19.29033665 -8.42607371 -9.54626304 -7.27257539 0 0 Z " fill="#FD3324" transform="translate(106.75,52.375)"/>
<path d="M0 0 C1.42978812 1.1927782 2.846916 2.40092109 4.25 3.625 C4.94738281 4.21410156 5.64476563 4.80320312 6.36328125 5.41015625 C8.00415052 6.80111357 9.62900058 8.21093667 11.25 9.625 C11.96027344 9.33753906 12.67054687 9.05007812 13.40234375 8.75390625 C16.19206026 7.64796925 18.99424502 6.59337769 21.8125 5.5625 C22.74191406 5.22089844 23.67132813 4.87929688 24.62890625 4.52734375 C33.58070456 1.44557712 42.59881546 1.62755611 51.25 5.625 C62.29640554 11.49581693 73.12830296 19.61924093 77.3359375 31.7578125 C80.94474642 47.02585024 77.98831329 60.84828902 70.125 74.1875 C58.93994638 90.7963404 43.35233755 102.66412768 26.25 112.625 C25.50492187 113.06263672 24.75984375 113.50027344 23.9921875 113.95117188 C-3.71378717 130.12864352 -3.71378717 130.12864352 -16.75 127.625 C-22.81425551 125.33700348 -27.40968509 121.74366385 -32.0625 117.3125 C-32.70985107 116.69785889 -33.35720215 116.08321777 -34.02416992 115.44995117 C-49.61122569 100.25194586 -60.42411107 80.68083996 -65.75 59.625 C-66.04777344 58.47644531 -66.04777344 58.47644531 -66.3515625 57.3046875 C-68.83333096 40.61357802 -66.79762501 25.23205237 -56.8828125 11.34765625 C-50.29337648 2.93586705 -41.87236303 -5.02067167 -31 -7.125 C-19.29033665 -8.42607371 -9.54626304 -7.27257539 0 0 Z M-44.75 6.625 C-45.3584375 7.1509375 -45.966875 7.676875 -46.59375 8.21875 C-55.14717577 16.17193536 -61.17454434 27.3516457 -61.98828125 39.05078125 C-62.48217901 64.91542696 -50.42824713 90.8845406 -32.75 109.625 C-29.19680108 112.66836624 -29.19680108 112.66836624 -24.75 113.625 C-24.481875 114.223125 -24.21375 114.82125 -23.9375 115.4375 C-21.92336724 119.14774455 -20.54430905 120.33477169 -16.5 121.8125 C-7.93448881 123.66836076 -2.83296195 121.69329484 4.75 117.875 C5.66136719 117.4315625 6.57273437 116.988125 7.51171875 116.53125 C12.53489146 114.06677854 17.42556591 111.45725484 22.25 108.625 C23.06984375 108.15578125 23.8896875 107.6865625 24.734375 107.203125 C40.24965334 98.10796183 56.24650018 85.88674972 66.25 70.625 C67.06380187 67.41218737 67.06380187 67.41218737 67.25 64.625 C67.91 64.625 68.57 64.625 69.25 64.625 C73.60874412 52.73574706 75.57331117 41.51698413 70.25 29.625 C69.95996094 28.95210937 69.66992188 28.27921875 69.37109375 27.5859375 C67.21117973 23.80796942 63.57339589 21.3555431 60.25 18.625 C59.50878906 17.99722656 58.76757812 17.36945313 58.00390625 16.72265625 C49.52607633 9.77289273 43.1428127 7.98271289 32.078125 8.203125 C23.65819459 9.1310357 16.37626599 13.25206405 9.25 17.625 C9.14171875 16.75488281 9.14171875 16.75488281 9.03125 15.8671875 C7.39071269 11.15884543 2.13383569 8.48561552 -1.75 5.625 C-2.53632812 5.0371875 -3.32265625 4.449375 -4.1328125 3.84375 C-17.61052808 -5.73622902 -32.45173238 -4.06038007 -44.75 6.625 Z " fill="#0D0909" transform="translate(106.75,52.375)"/>
<path d="M0 0 C6.59941659 3.99034492 10.93872534 8.80600456 14 16 C16.63075323 26.87255354 14.78929141 36.66403101 11 47 C10.34 47 9.68 47 9 47 C8.91105469 48.28583984 8.91105469 48.28583984 8.8203125 49.59765625 C7.80606226 53.80437985 5.70180903 56.30399568 2.875 59.4375 C2.37145996 60.01024658 1.86791992 60.58299316 1.34912109 61.1730957 C-0.0870801 62.79487345 -1.54016531 64.39950971 -3 66 C-3.90492188 67.01320312 -3.90492188 67.01320312 -4.828125 68.046875 C-13.67488605 77.42980338 -24.91945779 84.5805423 -36 91 C-36.87914062 91.51046875 -37.75828125 92.0209375 -38.6640625 92.546875 C-44.25489121 95.68854914 -49.99093063 98.55625687 -55.75 101.375 C-56.45930664 101.73335938 -57.16861328 102.09171875 -57.89941406 102.4609375 C-63.16307779 104.98552376 -67.45232178 105.79777432 -73.29296875 104.484375 C-77.30925135 102.92754793 -80.28433118 101.5077389 -83 98 C-83 97.34 -83 96.68 -83 96 C-82.32485352 95.97929443 -81.64970703 95.95858887 -80.95410156 95.93725586 C-73.68991294 95.52437461 -68.21241993 93.82585978 -61.75 90.5625 C-60.84757568 90.12091553 -59.94515137 89.67933105 -59.01538086 89.22436523 C-52.00838525 85.71123817 -45.51047082 81.66617995 -39.12890625 77.12890625 C-36 75 -36 75 -32.75390625 73.37890625 C-29.80972045 72.08594886 -29.80972045 72.08594886 -27.375 69.375 C-24.9678206 66.9678206 -24.1452061 66.67397274 -21 66 C-20.505 64.515 -20.505 64.515 -20 63 C-19.34 63 -18.68 63 -18 63 C-17.731875 62.360625 -17.46375 61.72125 -17.1875 61.0625 C-16 59 -16 59 -13 58 C-13 57.34 -13 56.68 -13 56 C-12.319375 55.360625 -11.63875 54.72125 -10.9375 54.0625 C-2.83559909 46.30683417 3.55764572 34.30520154 4.15625 23.06640625 C4.2107291 17.61168663 3.97589047 12.36739756 3 7 C2.34 7 1.68 7 1 7 C0.505 3.535 0.505 3.535 0 0 Z " fill="#AA0228" transform="translate(165,70)"/>
<path d="M0 0 C3.57800324 2.5557166 5.89115542 4.51023182 7.66015625 8.60546875 C7.06847656 8.19554687 6.47679687 7.785625 5.8671875 7.36328125 C5.07699219 6.82445312 4.28679687 6.285625 3.47265625 5.73046875 C2.69535156 5.19679688 1.91804688 4.663125 1.1171875 4.11328125 C-3.99451533 0.97636981 -8.26538926 0.26516756 -14.21484375 0.29296875 C-14.89675781 0.27685547 -15.57867187 0.26074219 -16.28125 0.24414062 C-23.65410432 0.23711886 -29.56660728 3.0104438 -35.33984375 7.60546875 C-46.64376065 19.57957835 -49.8676433 31.52037902 -49.61328125 47.48046875 C-49.10034802 61.00971762 -44.46322424 72.71425889 -38.33984375 84.60546875 C-37.19159103 86.85423502 -36.04557319 89.10414459 -34.90234375 91.35546875 C-34.40863281 92.2990625 -33.91492188 93.24265625 -33.40625 94.21484375 C-32.33984375 96.60546875 -32.33984375 96.60546875 -32.33984375 99.60546875 C-47.49757661 80.21485836 -56.68303072 58.49105999 -55.33984375 33.60546875 C-53.05381385 20.01529098 -44.19790125 8.70184022 -33.33984375 0.60546875 C-31.2421875 -0.625 -31.2421875 -0.625 -29.27734375 -1.58203125 C-28.62636719 -1.90558594 -27.97539063 -2.22914062 -27.3046875 -2.5625 C-18.4459798 -6.31380167 -8.15053698 -4.85766561 0 0 Z " fill="#F3EEEC" transform="translate(100.33984375,54.39453125)"/>
<path d="M0 0 C0.99 0.33 1.98 0.66 3 1 C2.67 2.98 2.34 4.96 2 7 C1.45214844 6.7834375 0.90429688 6.566875 0.33984375 6.34375 C-10.8556135 2.41168697 -21.64558743 2.59100926 -32.4140625 7.61328125 C-34.995738 8.99771449 -37.50550838 10.46458187 -40 12 C-39.7215625 11.1028125 -39.7215625 11.1028125 -39.4375 10.1875 C-38.77906313 7.83591238 -38.77906313 7.83591238 -40 5 C-26.42407183 -2.19524193 -14.83484974 -5.96484583 0 0 Z " fill="#0D0D0D" transform="translate(158,58)"/>
<path d="M0 0 C1.32 0 2.64 0 4 0 C4.02902429 3.27081471 4.04680684 6.5415963 4.0625 9.8125 C4.07087891 10.74126953 4.07925781 11.67003906 4.08789062 12.62695312 C4.09111328 13.51962891 4.09433594 14.41230469 4.09765625 15.33203125 C4.10289307 16.15421143 4.10812988 16.9763916 4.11352539 17.82348633 C4 20 4 20 3 23 C3.66 23 4.32 23 5 23 C4.67 27.29 4.34 31.58 4 36 C2.68 36 1.36 36 0 36 C-0.495 34.515 -0.495 34.515 -1 33 C-1.99 33.495 -1.99 33.495 -3 34 C-3 29.05 -3 24.1 -3 19 C-2.01 19 -1.02 19 0 19 C0 12.73 0 6.46 0 0 Z " fill="#F2F2F2" transform="translate(3,172)"/>
<path d="M0 0 C0.33 0 0.66 0 1 0 C1.02578125 0.81339844 1.0515625 1.62679687 1.078125 2.46484375 C1.86448846 18.35296011 5.74287256 31.90712671 13 46 C14.14825272 48.24876627 15.29427056 50.49867584 16.4375 52.75 C16.93121094 53.69359375 17.42492187 54.6371875 17.93359375 55.609375 C19 58 19 58 19 61 C10.58818988 50.23914717 3.04503583 38.48062737 0 25 C0.33 24.67 0.66 24.34 1 24 C0.85691406 23.35675781 0.71382812 22.71351562 0.56640625 22.05078125 C-0.23123857 17.75450125 -0.10475502 13.54626768 -0.0625 9.1875 C-0.05798828 8.30384766 -0.05347656 7.42019531 -0.04882812 6.50976562 C-0.03709866 4.33981441 -0.01916495 2.16989828 0 0 Z " fill="#EEE3DF" transform="translate(49,93)"/>
<path d="M0 0 C2.0721905 3.4306265 2.0721905 3.4306265 1.7578125 5.91015625 C1.54898438 6.62042969 1.34015625 7.33070312 1.125 8.0625 C-0.08782593 13.3050379 -0.20087993 18.33501235 -0.1875 23.6875 C-0.1879834 24.49517822 -0.1884668 25.30285645 -0.18896484 26.13500977 C-0.14730047 30.85132051 0.22155783 35.3480296 1 40 C-3.37880232 37.08079845 -3.37437537 33.85657391 -4.4296875 28.86328125 C-5.69268636 20.30776158 -6.32501625 11.12648377 -3 3 C-1.375 1.125 -1.375 1.125 0 0 Z " fill="#F3F1EF" transform="translate(50,79)"/>
<path d="M0 0 C3.125 2.25 3.125 2.25 5 4 C4.67 4.66 4.34 5.32 4 6 C2.33984375 5.0234375 0.6796875 4.046875 -0.98046875 3.0703125 C-9.29544178 -1.33646238 -18.83921986 -1.24588531 -27.8671875 0.93359375 C-30.10065872 1.65238348 -32.32186395 2.41140644 -34.5234375 3.22265625 C-37 4 -37 4 -39 3 C-37.79709989 2.20010196 -36.58733705 1.41052176 -35.375 0.625 C-34.36566406 -0.03628906 -34.36566406 -0.03628906 -33.3359375 -0.7109375 C-23.1277657 -6.34420956 -10.03124469 -5.71009313 0 0 Z " fill="#F4EEEF" transform="translate(160,65)"/>
<path d="M0 0 C3.57800324 2.5557166 5.89115542 4.51023182 7.66015625 8.60546875 C7.06847656 8.19554687 6.47679687 7.785625 5.8671875 7.36328125 C5.07699219 6.82445312 4.28679687 6.285625 3.47265625 5.73046875 C2.69535156 5.19679688 1.91804688 4.663125 1.1171875 4.11328125 C-4.09041095 0.91752131 -8.34687992 0.31251154 -14.40234375 0.41796875 C-15.46291992 0.41893555 -15.46291992 0.41893555 -16.54492188 0.41992188 C-19.94183842 0.44862821 -23.09310804 0.55133378 -26.33984375 1.60546875 C-26.33984375 0.94546875 -26.33984375 0.28546875 -26.33984375 -0.39453125 C-26.99984375 -1.05453125 -27.65984375 -1.71453125 -28.33984375 -2.39453125 C-18.64754233 -5.69403812 -8.97044061 -5.3463227 0 0 Z " fill="#F4E0DC" transform="translate(100.33984375,54.39453125)"/>
<path d="M0 0 C1.32 0 2.64 0 4 0 C4.02895225 3.29164829 4.0467823 6.58326399 4.0625 9.875 C4.07087891 10.81214844 4.07925781 11.74929687 4.08789062 12.71484375 C4.09111328 13.61074219 4.09433594 14.50664062 4.09765625 15.4296875 C4.10289307 16.25710449 4.10812988 17.08452148 4.11352539 17.93701172 C4 20 4 20 3 22 C2.34 22 1.68 22 1 22 C0.05862745 19.17588235 -0.11725382 17.47081968 -0.09765625 14.55078125 C-0.09443359 13.70322266 -0.09121094 12.85566406 -0.08789062 11.98242188 C-0.07951172 11.10134766 -0.07113281 10.22027344 -0.0625 9.3125 C-0.05798828 8.41982422 -0.05347656 7.52714844 -0.04882812 6.60742188 C-0.03704983 4.40488013 -0.02060164 2.20247401 0 0 Z " fill="#A5A5A5" transform="translate(3,172)"/>
<path d="M0 0 C3.9492568 0.55105909 7.34920174 1.38935371 11 3 C10.67 4.98 10.34 6.96 10 9 C9.39414063 8.79503906 8.78828125 8.59007813 8.1640625 8.37890625 C2.09658479 6.4279788 -3.64303124 5.3922385 -10 5 C-10 4.67 -10 4.34 -10 4 C-6.7 3.67 -3.4 3.34 0 3 C0 2.01 0 1.02 0 0 Z " fill="#171616" transform="translate(150,56)"/>
<path d="M0 0 C2.31 0 4.62 0 7 0 C7.02698189 1.62490954 7.04638757 3.24994633 7.0625 4.875 C7.07410156 5.77992188 7.08570313 6.68484375 7.09765625 7.6171875 C7 10 7 10 6 12 C3.03 11.505 3.03 11.505 0 11 C0 7.37 0 3.74 0 0 Z " fill="#F9F9F9" transform="translate(0,209)"/>
<path d="M0 0 C0.66 0.99 1.32 1.98 2 3 C1.01 3.33 0.02 3.66 -1 4 C-1 4.99 -1 5.98 -1 7 C-2.28965176 8.37562854 -3.62689293 9.70766393 -5 11 C-5.99 12.485 -5.99 12.485 -7 14 C-7.66 13.67 -8.32 13.34 -9 13 C-9 13.66 -9 14.32 -9 15 C-10.65 15.33 -12.3 15.66 -14 16 C-14 15.01 -14 14.02 -14 13 C-13.01 12.67 -12.02 12.34 -11 12 C-11 11.34 -11 10.68 -11 10 C-10.34 10 -9.68 10 -9 10 C-9 9.34 -9 8.68 -9 8 C-8.34 8 -7.68 8 -7 8 C-7.33 7.01 -7.66 6.02 -8 5 C-7.01 5 -6.02 5 -5 5 C-2.31232422 2.56249975 -2.31232422 2.56249975 0 0 Z " fill="#AE0A31" transform="translate(142,139)"/>
<path d="M0 0 C0.33 0 0.66 0 1 0 C1.02578125 0.81339844 1.0515625 1.62679687 1.078125 2.46484375 C1.47133311 10.40943484 2.64481105 17.64524266 4.71582031 25.31225586 C6.37341172 31.64470302 6.37341172 31.64470302 5 35 C4.34 35 3.68 35 3 35 C2.01 31.7 1.02 28.4 0 25 C0.33 24.67 0.66 24.34 1 24 C0.85691406 23.35675781 0.71382812 22.71351562 0.56640625 22.05078125 C-0.23123857 17.75450125 -0.10475502 13.54626768 -0.0625 9.1875 C-0.05798828 8.30384766 -0.05347656 7.42019531 -0.04882812 6.50976562 C-0.03709866 4.33981441 -0.01916495 2.16989828 0 0 Z " fill="#F5DED6" transform="translate(49,93)"/>
<path d="M0 0 C0 3.60573896 -0.81707462 4.41336566 -3 7.1875 C-3.556875 7.90292969 -4.11375 8.61835938 -4.6875 9.35546875 C-5.120625 9.89816406 -5.55375 10.44085938 -6 11 C-6.99 10.67 -7.98 10.34 -9 10 C-9 11.65 -9 13.3 -9 15 C-10.98 15.99 -10.98 15.99 -13 17 C-13.66 16.34 -14.32 15.68 -15 15 C-15.99 15.495 -15.99 15.495 -17 16 C-17 15.01 -17 14.02 -17 13 C-15.05859375 11.38671875 -15.05859375 11.38671875 -12.4375 9.6875 C-7.98948596 6.71372105 -3.99166148 3.55778523 0 0 Z " fill="#0E0504" transform="translate(153,143)"/>
<path d="M0 0 C0 0.99 0 1.98 0 3 C0.99 3.33 1.98 3.66 3 4 C0.14693203 6.32472205 -2.54074837 7.7508258 -6 9 C-6 8.34 -6 7.68 -6 7 C-8.97 6.505 -8.97 6.505 -12 6 C-8.59780735 3.25207517 -4.51535412 0 0 0 Z " fill="#160D0F" transform="translate(116,168)"/>
<path d="M0 0 C0 0.66 0 1.32 0 2 C-0.99 2 -1.98 2 -3 2 C-2.67 2.66 -2.34 3.32 -2 4 C-1.34 4 -0.68 4 0 4 C0 4.66 0 5.32 0 6 C-3.05847848 6.54372951 -5.88772805 7 -9 7 C-9.63421875 7.18433594 -10.2684375 7.36867187 -10.921875 7.55859375 C-14.50491942 8.31965394 -17.52370697 6.98494969 -21 6 C-21 5.67 -21 5.34 -21 5 C-20.29875 4.97421875 -19.5975 4.9484375 -18.875 4.921875 C-12.3000977 4.52881019 -5.8100672 0 0 0 Z " fill="#B40425" transform="translate(103,161)"/>
<path d="M0 0 C3.53966127 3.17661908 5.60803528 5.16576839 6 10 C6 10.66 6 11.32 6 12 C3.13496932 10.7156759 0.84572295 9.58401213 -1 7 C-1.25 3.875 -1.25 3.875 -1 1 C-0.67 0.67 -0.34 0.34 0 0 Z " fill="#030405" transform="translate(68,155)"/>
<path d="M0 0 C0 0.66 0 1.32 0 2 C-0.9075 2.12375 -1.815 2.2475 -2.75 2.375 C-5.64032894 2.93083249 -7.45156262 3.6408334 -10 5 C-11.3242287 5.36784131 -12.65613912 5.71202981 -14 6 C-14 5.34 -14 4.68 -14 4 C-14.66 3.34 -15.32 2.68 -16 2 C-10.51324804 0.13216954 -5.77807024 -0.2358396 0 0 Z " fill="#DBD9D4" transform="translate(88,50)"/>
<path d="M0 0 C2.375 -0.125 2.375 -0.125 5 0 C7 2 7 2 7.3125 4.5 C7.209375 5.325 7.10625 6.15 7 7 C6.01 7.66 5.02 8.32 4 9 C4 8.34 4 7.68 4 7 C2.68 6.34 1.36 5.68 0 5 C0.33 4.34 0.66 3.68 1 3 C0.67 2.01 0.34 1.02 0 0 Z " fill="#190206" transform="translate(171,71)"/>
<path d="M0 0 C-4.18399404 2.78932936 -7.87993616 4.34950709 -12.75 5.625 C-13.73484375 5.88539062 -14.7196875 6.14578125 -15.734375 6.4140625 C-16.85585937 6.70410156 -16.85585937 6.70410156 -18 7 C-15.22226839 3.94578122 -12.83732988 2.20254335 -9 0.6875 C-8.154375 0.34074219 -7.30875 -0.00601563 -6.4375 -0.36328125 C-3.82277173 -1.04629521 -2.51093217 -0.90091316 0 0 Z " fill="#DED0CA" transform="translate(139,62)"/>
<path d="M0 0 C3 1 3 1 4 3 C6.91086669 3.9702889 8.90223685 4.16467847 11.9375 4.1875 C13.21947266 4.20876953 13.21947266 4.20876953 14.52734375 4.23046875 C17.02619465 4.14957127 17.02619465 4.14957127 19.12890625 2.92578125 C21 2 21 2 24 3 C18.26224501 6.93446057 11.76200105 6.86323418 5 6 C2.09765625 4.6640625 2.09765625 4.6640625 0 3 C0 2.01 0 1.02 0 0 Z " fill="#E62C28" transform="translate(75,160)"/>
<path d="M0 0 C3.0831351 1.19899698 6.06279492 2.47700477 9 4 C9 4.66 9 5.32 9 6 C7.68 6 6.36 6 5 6 C4.67 6.99 4.34 7.98 4 9 C0.06153846 5.67692308 0.06153846 5.67692308 -0.25 2.25 C-0.1675 1.5075 -0.085 0.765 0 0 Z " fill="#1D0A0E" transform="translate(73,162)"/>
<path d="M0 0 C2.9375 1.625 2.9375 1.625 6 4 C6.875 7.25 6.875 7.25 7 10 C6.34 10 5.68 10 5 10 C4.67 11.32 4.34 12.64 4 14 C3.67 11.69 3.34 9.38 3 7 C2.34 7 1.68 7 1 7 C0.67 4.69 0.34 2.38 0 0 Z " fill="#BA1126" transform="translate(165,70)"/>
<path d="M0 0 C0.99 0 1.98 0 3 0 C3.02698189 1.62490954 3.04638757 3.24994633 3.0625 4.875 C3.07410156 5.77992188 3.08570313 6.68484375 3.09765625 7.6171875 C3 10 3 10 2 12 C1.01 11.67 0.02 11.34 -1 11 C-1.14285714 3.57142857 -1.14285714 3.57142857 0 0 Z " fill="#A6A6A6" transform="translate(4,209)"/>
<path d="M0 0 C-0.52393706 5.86809507 -1.76108858 10.54873741 -4 16 C-4.66 14.68 -5.32 13.36 -6 12 C-5.67 12 -5.34 12 -5 12 C-4.87882813 11.21753906 -4.75765625 10.43507813 -4.6328125 9.62890625 C-4.46523437 8.61699219 -4.29765625 7.60507813 -4.125 6.5625 C-3.88136719 5.04849609 -3.88136719 5.04849609 -3.6328125 3.50390625 C-3.42398438 2.67761719 -3.21515625 1.85132812 -3 1 C-1 0 -1 0 0 0 Z " fill="#0F100F" transform="translate(185,103)"/>
<path d="M0 0 C3.72450216 2.10515339 5.6795921 3.24267224 7.375 7.25 C7.684375 8.61125 7.684375 8.61125 8 10 C7.34 10 6.68 10 6 10 C5.67 9.34 5.34 8.68 5 8 C4.67 8.99 4.34 9.98 4 11 C4.66 11.33 5.32 11.66 6 12 C5.01 12 4.02 12 3 12 C2.86722656 11.38511719 2.73445313 10.77023438 2.59765625 10.13671875 C2.42105469 9.32847656 2.24445313 8.52023438 2.0625 7.6875 C1.88847656 6.88699219 1.71445313 6.08648437 1.53515625 5.26171875 C1.00113841 2.854599 1.00113841 2.854599 0 0 Z " fill="#F53E34" transform="translate(104,60)"/>
<path d="M0 0 C0.99 0 1.98 0 3 0 C3 3.3 3 6.6 3 10 C1.68 10 0.36 10 -1 10 C-1.02689216 8.52093108 -1.04634621 7.04172517 -1.0625 5.5625 C-1.07410156 4.73878906 -1.08570313 3.91507813 -1.09765625 3.06640625 C-1 1 -1 1 0 0 Z " fill="#A9A9A9" transform="translate(4,198)"/>
<path d="M0 0 C3.36179774 1.44077046 5.59156268 3.24750021 8 6 C8 6.66 8 7.32 8 8 C8.99 8.33 9.98 8.66 11 9 C8.1875 9.3125 8.1875 9.3125 5 9 C3.25 6.75 3.25 6.75 2 4 C1.608125 3.236875 1.21625 2.47375 0.8125 1.6875 C0.544375 1.130625 0.27625 0.57375 0 0 Z " fill="#AB0B26" transform="translate(108,62)"/>
<path d="M0 0 C0.33 0.99 0.66 1.98 1 3 C-3.455 4.485 -3.455 4.485 -8 6 C-8.33 5.01 -8.66 4.02 -9 3 C-2.25 0 -2.25 0 0 0 Z " fill="#F74337" transform="translate(80,54)"/>
<path d="M0 0 C2.64 0.33 5.28 0.66 8 1 C7.01 1.680625 7.01 1.680625 6 2.375 C5.01 3.179375 5.01 3.179375 4 4 C4 4.66 4 5.32 4 6 C2.68 6.33 1.36 6.66 0 7 C0 4.69 0 2.38 0 0 Z " fill="#FB3E2D" transform="translate(136,64)"/>
<path d="M0 0 C1.32 0.66 2.64 1.32 4 2 C4 3.65 4 5.3 4 7 C3.01 7.495 3.01 7.495 2 8 C0.35 6.68 -1.3 5.36 -3 4 C-2.34 3.67 -1.68 3.34 -1 3 C-0.67 2.01 -0.34 1.02 0 0 Z " fill="#101010" transform="translate(101,49)"/>
<path d="M0 0 C4.28477792 2.30718811 7.72291137 4.32966073 11 8 C10.67 8.66 10.34 9.32 10 10 C9.45730469 9.59007812 8.91460937 9.18015625 8.35546875 8.7578125 C7.64003906 8.21898437 6.92460938 7.68015625 6.1875 7.125 C5.47980469 6.59132813 4.77210937 6.05765625 4.04296875 5.5078125 C2.39543703 4.29185219 0.70375789 3.13583859 -1 2 C-0.67 1.34 -0.34 0.68 0 0 Z " fill="#E6D1C4" transform="translate(97,53)"/>
<path d="M0 0 C2.77398263 3.46747828 4.95912413 7.06402511 7 11 C6.67 11.66 6.34 12.32 6 13 C3.36 9.37 0.72 5.74 -2 2 C-1.34 1.34 -0.68 0.68 0 0 Z " fill="#E6D9D2" transform="translate(62,141)"/>
<path d="M0 0 C0.91058531 3.07322544 1.08886184 5.80097361 1 9 C-0.65 9.33 -2.3 9.66 -4 10 C-2.8905928 6.51329166 -1.73662334 3.22515763 0 0 Z " fill="#E1E6E4" transform="translate(51,72)"/>
<path d="M0 0 C0 0.66 0 1.32 0 2 C-3.67410785 3.17571451 -7.16929183 3.07366746 -11 3 C-8.89427904 -1.21144191 -4.11694326 -0.07767817 0 0 Z " fill="#FCF7F9" transform="translate(146,61)"/>
<path d="M0 0 C0.33 0 0.66 0 1 0 C1 1.65 1 3.3 1 5 C1.66 5 2.32 5 3 5 C3.33 4.01 3.66 3.02 4 2 C4.125 7.75 4.125 7.75 3 10 C2.34 10 1.68 10 1 10 C-0.1577506 6.52674819 -0.06866652 3.63932552 0 0 Z " fill="#B8B8B8" transform="translate(3,184)"/>
<path d="M0 0 C1.36118461 2.24195113 2.06138028 3.47826762 1.75 6.125 C1 8 1 8 -1 10 C-1 9.01 -1 8.02 -1 7 C-1.66 6.67 -2.32 6.34 -3 6 C-2.01 4.02 -1.02 2.04 0 0 Z " fill="#B50829" transform="translate(165,108)"/>
<path d="M0 0 C0.33 0 0.66 0 1 0 C1.08078641 2.12438339 1.13909141 4.2496323 1.1875 6.375 C1.22230469 7.55835937 1.25710937 8.74171875 1.29296875 9.9609375 C1.19628906 10.96382812 1.09960938 11.96671875 1 13 C0.01 13.66 -0.98 14.32 -2 15 C-1.855625 14.01 -1.71125 13.02 -1.5625 12 C-0.99074821 8.00590535 -0.49180166 4.00467063 0 0 Z " fill="#B60821" transform="translate(170,88)"/>
<path d="M0 0 C1.98 0 3.96 0 6 0 C3.27521226 3.36591427 -0.06856792 4.44226276 -4 6 C-4.33 5.34 -4.66 4.68 -5 4 C-4.175 3.525625 -3.35 3.05125 -2.5 2.5625 C-1.2625 1.7890625 -1.2625 1.7890625 0 1 C0 0.67 0 0.34 0 0 Z " fill="#F12E2A" transform="translate(109,154)"/>
<path d="M0 0 C3.61939504 1.72743854 6.87567603 3.47650757 10 6 C9.67 6.66 9.34 7.32 9 8 C5.59244728 6.07119658 2.25852365 4.1723491 -1 2 C-0.67 1.34 -0.34 0.68 0 0 Z " fill="#E3C6BE" transform="translate(155,63)"/>
<path d="M0 0 C0.66 0.33 1.32 0.66 2 1 C2.59355614 3.64860427 2.74209269 6.29197322 3 9 C1.35 9 -0.3 9 -2 9 C-2 8.34 -2 7.68 -2 7 C-1.01 7 -0.02 7 1 7 C0.67 4.69 0.34 2.38 0 0 Z " fill="#FC392F" transform="translate(164,71)"/>
<path d="M0 0 C1.65 0 3.3 0 5 0 C5.66 1.32 6.32 2.64 7 4 C6.01 4.66 5.02 5.32 4 6 C2.66666667 4 1.33333333 2 0 0 Z " fill="#171819" transform="translate(171,71)"/>
<path d="M0 0 C1.98 0 3.96 0 6 0 C5.67 1.32 5.34 2.64 5 4 C2.03 3.505 2.03 3.505 -1 3 C-0.67 2.01 -0.34 1.02 0 0 Z " fill="#010201" transform="translate(79,45)"/>
<path d="M0 0 C0.66 0.33 1.32 0.66 2 1 C2 1.99 2 2.98 2 4 C0.02 4.99 0.02 4.99 -2 6 C-2.66 5.01 -3.32 4.02 -4 3 C-2.68 2.01 -1.36 1.02 0 0 Z " fill="#110E10" transform="translate(138,157)"/>
<path d="M0 0 C0.66 0 1.32 0 2 0 C2 0.66 2 1.32 2 2 C3.32 1.67 4.64 1.34 6 1 C6 1.66 6 2.32 6 3 C3.03 3.66 0.06 4.32 -3 5 C-1.625 2.5 -1.625 2.5 0 0 Z " fill="#F2351E" transform="translate(70,58)"/>
<path d="M0 0 C1.32 0 2.64 0 4 0 C4 1.32 4 2.64 4 4 C3.01 4 2.02 4 1 4 C0.67 4.66 0.34 5.32 0 6 C0 4.02 0 2.04 0 0 Z " fill="#C0C0C0" transform="translate(3,172)"/>
<path d="M0 0 C1.32 0.66 2.64 1.32 4 2 C3.34 3.32 2.68 4.64 2 6 C1.01 5.67 0.02 5.34 -1 5 C-0.67 3.35 -0.34 1.7 0 0 Z " fill="#040302" transform="translate(78,166)"/>
<path d="M0 0 C2.15377564 2.62198774 3.40072174 4.64404172 4 8 C3.01 8 2.02 8 1 8 C0.34 5.69 -0.32 3.38 -1 1 C-0.67 0.67 -0.34 0.34 0 0 Z " fill="#1A191A" transform="translate(180,77)"/>
<path d="M0 0 C1.32 0.33 2.64 0.66 4 1 C4 2.32 4 3.64 4 5 C2.68 4.67 1.36 4.34 0 4 C0 2.68 0 1.36 0 0 Z " fill="#0E0202" transform="translate(116,167)"/>
<path d="M0 0 C1.485 0.99 1.485 0.99 3 2 C2.67 3.32 2.34 4.64 2 6 C1.01 6 0.02 6 -1 6 C-0.67 4.02 -0.34 2.04 0 0 Z " fill="#050304" transform="translate(161,60)"/>
</svg>
